<?xml version="1.0" standalone="no"?>
<svg xmlns="http://www.w3.org/2000/svg" viewBox="0 0 133.32 29" width="133.32" height="29"><g fill="#ff0000" color="#ff0000" transform="translate(0, 0) scale(0.58)"><svg width="50.0" height="50.0" x="0.0" y="0.0" viewBox="0 0 50 50"><path fill="currentColor" fill-rule="evenodd" d="M25 0l25 25-25 25L0 25 25 0zm0 8.333L8.333 25 25 41.667 41.667 25 25 8.333zm0 8.334L33.333 25 25 33.333 16.667 25 25 16.667z"></path></svg></g><line x1="41" y1="1" x2="41" y2="28" stroke="#000000" stroke-linecap="round"></line><path fill="#000000" fill-rule="nonzero" d="M9.70 12.31L9.70 12.31L12.79 12.31Q12.79 15.58 11.16 17.33Q9.53 19.08 6.55 19.08L6.55 19.08Q0 19.08 0 11.38L0 11.38L0 9.94Q0 3.86 3.36 2.33L3.36 2.33Q4.68 1.70 6.55 1.70L6.55 1.70Q9.29 1.70 11.00 3.20Q12.72 4.70 12.72 7.54L12.72 7.54L9.60 7.54Q9.34 6.12 8.66 5.40Q7.99 4.68 6.55 4.68L6.55 4.68Q4.87 4.68 4.06 5.74L4.06 5.74Q3.48 6.48 3.38 8.28L3.38 8.28Q3.34 8.86 3.34 9.84L3.34 9.84L3.34 11.33Q3.34 14.09 4.10 15.10L4.10 15.10Q4.90 16.10 6.56 16.10Q8.23 16.10 8.87 15.18Q9.50 14.26 9.70 12.31ZM22.66 5.28L22.66 5.28L21.79 8.35Q21.43 8.21 20.98 8.21L20.98 8.21Q19.78 8.21 18.02 9.24L18.02 9.24L18.02 18.94L14.90 18.94L14.90 5.23L17.23 5.23L17.95 6.43L21.26 5.06Q21.50 5.04 21.91 5.04Q22.32 5.04 22.66 5.28ZM26.33 0Q27.46 0 27.79 0.35Q28.13 0.70 28.13 1.81Q28.13 2.93 27.78 3.28Q27.43 3.62 26.32 3.62Q25.20 3.62 24.85 3.26Q24.50 2.90 24.50 1.80Q24.50 0.70 24.85 0.35Q25.20 0 26.33 0ZM27.86 5.74L27.86 18.94L24.74 18.94L24.74 5.74L27.86 5.74ZM40.75 15.14L40.75 15.14L40.75 15.50Q40.61 17.30 39.23 18.22Q37.85 19.13 35.78 19.13L35.78 19.13Q32.74 19.13 31.51 18.02L31.51 18.02Q30.38 17.02 30.38 15.05L30.38 15.05L30.38 14.76L33.22 14.76Q33.22 15.86 33.79 16.27Q34.37 16.68 35.78 16.68L35.78 16.68Q37.70 16.68 37.70 15.29L37.70 15.29Q37.70 14.14 37.03 13.75L37.03 13.75Q36.72 13.56 36.24 13.46L36.24 13.46L33.82 13.06Q30.65 12.55 30.65 9.10L30.65 9.10Q30.65 7.18 32.05 6.11Q33.46 5.04 35.62 5.04L35.62 5.04Q40.54 5.04 40.54 9.29L40.54 9.29L40.54 9.60L37.82 9.60Q37.78 8.47 37.22 8.06Q36.67 7.66 35.68 7.66Q34.68 7.66 34.18 8.05Q33.67 8.45 33.67 8.93L33.67 8.93Q33.67 10.30 34.78 10.49L34.78 10.49L37.68 11.02Q40.75 11.59 40.75 15.14ZM56.50 10.32L56.50 10.32L56.52 12.17Q56.42 13.92 56.09 15.12Q55.75 16.32 54.77 17.30L54.77 17.30Q53.14 18.94 50.02 18.94L50.02 18.94Q46.34 18.94 44.98 17.96Q43.61 16.99 43.61 14.45L43.61 14.45L43.61 1.85L50.26 1.85Q53.14 1.85 54.77 3.48L54.77 3.48Q56.09 4.80 56.33 6.70L56.33 6.70Q56.50 8.04 56.50 10.32ZM52.44 14.90Q52.90 14.35 53.03 13.38Q53.16 12.41 53.16 10.34Q53.16 8.28 53.03 7.36Q52.90 6.43 52.44 5.88L52.44 5.88Q51.58 4.82 49.94 4.82L49.94 4.82L46.94 4.82L46.94 14.28Q46.94 15.24 47.59 15.60Q48.24 15.96 49.91 15.96Q51.58 15.96 52.44 14.90L52.44 14.90ZM69.46 12.82L69.46 12.82L61.46 12.82Q61.46 14.69 62.05 15.55Q62.64 16.42 64.42 16.42L64.42 16.42Q65.57 16.42 66.12 15.68Q66.67 14.95 66.67 14.28L66.67 14.28L69.48 14.28Q69.48 16.85 68.10 18.05Q66.72 19.25 64.45 19.25Q62.18 19.25 60.94 18.60L60.94 18.60Q58.37 17.28 58.37 11.59L58.37 11.59Q58.37 8.21 59.83 6.64Q61.30 5.06 64.30 5.06L64.30 5.06Q69.50 5.06 69.50 10.85L69.50 10.85Q69.50 11.47 69.46 12.82ZM61.54 10.68L61.54 10.68L66.67 10.68Q66.67 9.10 66.07 8.38Q65.47 7.66 64.24 7.66Q63 7.66 62.27 8.39Q61.54 9.12 61.54 10.68ZM79.03 5.23L82.32 5.23L77.74 18.94L75.29 18.94L70.68 5.23L73.97 5.23L76.51 14.16L79.03 5.23Z" transform="translate(51, 4.876)"></path></svg>